<svg xmlns="http://www.w3.org/2000/svg" viewBox="0 0 240 240" role="img" aria-label="EduCatalog crest logo">
  <defs>
    <linearGradient id="gold" x1="0%" y1="0%" x2="100%" y2="100%">
      <stop offset="0%" stop-color="#f5d67b"/>
      <stop offset="45%" stop-color="#e0b95a"/>
      <stop offset="100%" stop-color="#b98a2e"/>
    </linearGradient>
    <linearGradient id="book" x1="0%" y1="0%" x2="100%" y2="0%">
      <stop offset="0%" stop-color="#2f3b52"/>
      <stop offset="100%" stop-color="#1b2233"/>
    </linearGradient>
    <linearGradient id="leaf" x1="0%" y1="0%" x2="0%" y2="100%">
      <stop offset="0%" stop-color="#4caf50"/>
      <stop offset="100%" stop-color="#2e7d32"/>
    </linearGradient>
    <filter id="glow" x="-20%" y="-20%" width="140%" height="140%">
      <feDropShadow dx="0" dy="4" stdDeviation="6" flood-color="#000" flood-opacity="0.25"/>
    </filter>
  </defs>
  <rect width="240" height="240" fill="none"/>
  <g filter="url(#glow)">
    <path d="M120 40 55 70l65 30 65-30-65-30z" fill="#0c0f16" stroke="url(#gold)" stroke-width="4" stroke-linejoin="round"/>
    <path d="M120 100v28" stroke="url(#gold)" stroke-width="6" stroke-linecap="round"/>
    <path d="M120 128c0 10-6 18-14 22" stroke="#caa24a" stroke-width="6" stroke-linecap="round"/>
    <path d="M80 126h80v26c0 4-3 7-7 7H87c-4 0-7-3-7-7v-26z" fill="url(#book)" stroke="#d7c07a" stroke-width="3"/>
    <rect x="76" y="150" width="88" height="18" rx="6" fill="#263045" stroke="#d7c07a" stroke-width="3"/>
    <rect x="70" y="160" width="100" height="16" rx="5" fill="#152033" stroke="#d7c07a" stroke-width="3"/>
    <path d="M82 124h28" stroke="#d7c07a" stroke-width="4" stroke-linecap="round"/>
    <path d="M128 124h30" stroke="#d7c07a" stroke-width="4" stroke-linecap="round"/>
    <path d="M120 70v22" stroke="#f5d67b" stroke-width="6" stroke-linecap="round"/>
    <path d="M182 82c6 10 11 24 11 38 0 24-10 44-28 58" fill="none" stroke="#caa24a" stroke-width="6" stroke-linecap="round"/>
    <path d="M58 82c-6 10-11 24-11 38 0 24 10 44 28 58" fill="none" stroke="#caa24a" stroke-width="6" stroke-linecap="round"/>
    <path d="M186 84c-12 18-24 30-36 38" fill="none" stroke="url(#leaf)" stroke-width="6" stroke-linecap="round" stroke-linejoin="round"/>
    <path d="M54 84c12 18 24 30 36 38" fill="none" stroke="url(#leaf)" stroke-width="6" stroke-linecap="round" stroke-linejoin="round"/>
    <circle cx="120" cy="178" r="5" fill="#f5d67b"/>
  </g>
</svg>
